<?xml version="1.0"?><svg width="640" height="480" xmlns="http://www.w3.org/2000/svg">
 <title>Large Green Recycle Symbol</title>
 <g>
  <title>Layer 1</title>
  <g id="layer1">
   <g id="g3535">
    <path d="m392.075409,235.493759l86.267761,-52.655762l38.652557,76.121933c9.336426,41.590424 -41.826843,56.853058 -82.906769,54.372925l-42.01355,-77.839096z" id="path2742" stroke-width="0.25000000pt" fill-rule="evenodd" fill="#008600"/>
    <path d="m372.469116,289.866608l-45.374542,81.845428l45.374542,82.990112l1.120331,-33.196014l41.453369,0c15.124878,1.335449 34.731262,-8.776031 42.013611,-23.466156l53.217072,-99.588165c-17.552307,17.742737 -40.12207,22.321472 -66.101288,22.321472l-70.022522,0l-1.680573,-30.906677z" id="path2743" stroke-width="0.25000000pt" fill-rule="evenodd" fill="#008600"/>
    <path d="m271.09137,188.958817l-86.93158,-51.503372l46.377457,-71.476349c31.057816,-28.52739 68.952194,9.767715 86.769516,47.667732l-46.215393,75.311989z" id="path2751" stroke-width="0.25000000pt" fill-rule="evenodd" fill="#008600"/>
    <path d="m327.135773,180.081131l92.06076,0.805878l48.991852,-80.814796l-28.950256,15.11216l-20.12088,-37.029724c-6.198639,-14.159035 -24.367737,-26.765129 -40.473175,-26.140022l-111.05014,0.800507c23.702454,7.067215 38.575562,25.006027 51.185547,48.212906l33.987915,62.550117l-25.631622,16.502975z" id="path2752" stroke-width="0.25000000pt" fill-rule="evenodd" fill="#008600"/>
    <path d="m117.636841,184.694763l26.935333,21.044937l-25.350861,48.56514c-12.675507,22.393829 9.099991,44.209351 22.974213,51.802765c13.658295,7.47525 34.857483,8.363953 54.662811,8.094238l35.649628,-58.278229l26.935364,14.569611l-46.740692,-86.607849l-95.065796,0.809387z" id="path2753" stroke-width="0.25000000pt" fill-rule="evenodd" fill="#008600"/>
    <path d="m121.597977,297.204041l57.83168,106.843231c11.61911,14.839417 33.537094,18.346832 56.247238,17.807251l61.000595,0l0,-101.177338l-115.663467,-0.809479c-17.956879,1.079193 -41.459229,-2.698029 -59.416046,-22.663666z" id="path2754" stroke-width="0.25000000pt" fill-rule="evenodd" fill="#008600"/>
   </g>
  </g>
 </g>
</svg>